<svg xmlns="http://www.w3.org/2000/svg" xmlns:xlink="http://www.w3.org/1999/xlink" width="1920" zoomAndPan="magnify" viewBox="0 0 1440 809.999993" height="1080" preserveAspectRatio="xMidYMid meet" version="1.0"><defs><g/></defs><g fill="#fefefe" fill-opacity="1"><g transform="translate(60.821598, 497.981171)"><g><path d="M 84.671875 -147.25 C 81.648438 -145.0625 80.140625 -142.613281 80.140625 -139.90625 C 80.140625 -137.207031 82.15625 -135.859375 86.1875 -135.859375 C 87.925781 -135.859375 90.164062 -136.363281 92.90625 -137.375 L 93.046875 -137.375 C 93.503906 -137.375 93.734375 -136.4375 93.734375 -134.5625 C 93.734375 -132.6875 93.550781 -131.566406 93.1875 -131.203125 C 83.757812 -124.523438 75.796875 -121.1875 69.296875 -121.1875 C 62.804688 -121.1875 58.097656 -123.015625 55.171875 -126.671875 C 52.242188 -130.328125 50.78125 -135.101562 50.78125 -141 C 50.78125 -146.90625 54.023438 -153.175781 60.515625 -159.8125 C 67.015625 -166.445312 75.753906 -172.578125 86.734375 -178.203125 C 97.710938 -183.828125 111.320312 -188.46875 127.5625 -192.125 C 143.800781 -195.789062 162.050781 -197.625 182.3125 -197.625 C 202.582031 -197.625 219.53125 -193.664062 233.15625 -185.75 C 246.789062 -177.832031 253.609375 -168.816406 253.609375 -158.703125 C 253.609375 -148.597656 250.0625 -138.332031 242.96875 -127.90625 C 235.882812 -117.476562 227.007812 -108.394531 216.34375 -100.65625 C 205.6875 -92.925781 193.863281 -86.59375 180.875 -81.65625 C 167.882812 -76.71875 156.265625 -74.25 146.015625 -74.25 C 135.773438 -74.25 127.816406 -78.363281 122.140625 -86.59375 C 108.234375 -64.726562 98.804688 -49.789062 93.859375 -41.78125 C 88.921875 -33.78125 84.738281 -27.054688 81.3125 -21.609375 C 77.882812 -16.171875 75.234375 -11.894531 73.359375 -8.78125 C 71.484375 -5.664062 70.5 -4.066406 70.40625 -3.984375 C 68.476562 -1.878906 66.421875 -0.828125 64.234375 -0.828125 L 57.5 0.40625 L 54.203125 0.140625 L 51.875 0.140625 C 46.476562 0.140625 43.78125 -1.550781 43.78125 -4.9375 C 43.78125 -9.238281 52.789062 -25.429688 70.8125 -53.515625 C 88.832031 -81.609375 105.828125 -107.085938 121.796875 -129.953125 C 137.765625 -152.828125 147.070312 -165.679688 149.71875 -168.515625 C 152.375 -171.359375 154.726562 -173.03125 156.78125 -173.53125 C 158.84375 -174.039062 162.164062 -174.296875 166.75 -174.296875 L 173.609375 -174.296875 C 174.796875 -174.296875 175.390625 -173.359375 175.390625 -171.484375 C 175.390625 -169.609375 175.160156 -168.300781 174.703125 -167.5625 C 166.648438 -156.3125 152.101562 -134.082031 131.0625 -100.875 C 131.789062 -99.40625 133 -98.488281 134.6875 -98.125 C 136.382812 -97.757812 138.195312 -97.578125 140.125 -97.578125 L 144.09375 -97.578125 C 152.507812 -97.578125 161.613281 -99.613281 171.40625 -103.6875 C 181.195312 -107.757812 189.796875 -112.628906 197.203125 -118.296875 C 204.617188 -123.972656 210.816406 -129.894531 215.796875 -136.0625 C 220.785156 -142.238281 223.28125 -147.523438 223.28125 -151.921875 C 223.28125 -156.316406 221.90625 -160.25 219.15625 -163.71875 C 216.414062 -167.195312 212.671875 -169.941406 207.921875 -171.953125 C 198.585938 -175.890625 187.265625 -177.859375 173.953125 -177.859375 C 160.640625 -177.859375 144.582031 -174.40625 125.78125 -167.5 C 106.976562 -160.59375 93.273438 -153.84375 84.671875 -147.25 Z M 84.671875 -147.25 "/></g></g></g><g fill="#fefefe" fill-opacity="1"><g transform="translate(263.660226, 497.981171)"><g><path d="M 113.21875 -104.296875 C 120.175781 -104.296875 123.65625 -101.921875 123.65625 -97.171875 C 123.65625 -94.609375 123.054688 -92.726562 121.859375 -91.53125 C 120.671875 -90.34375 118.132812 -86.382812 114.25 -79.65625 C 110.363281 -72.9375 106.0625 -64.335938 101.34375 -53.859375 C 96.632812 -43.390625 93.59375 -34.445312 92.21875 -27.03125 C 91.945312 -26.113281 91.8125 -24.832031 91.8125 -23.1875 C 91.8125 -18.15625 93.179688 -15.640625 95.921875 -15.640625 C 98.671875 -15.640625 101.921875 -16.941406 105.671875 -19.546875 C 109.421875 -22.160156 112.757812 -24.953125 115.6875 -27.921875 C 118.613281 -30.898438 121.472656 -33.941406 124.265625 -37.046875 C 127.054688 -40.160156 128.722656 -41.945312 129.265625 -42.40625 C 129.816406 -42.863281 130.644531 -43.09375 131.75 -43.09375 C 133.488281 -43.09375 134.539062 -41.765625 134.90625 -39.109375 C 135.269531 -36.460938 135.453125 -33.71875 135.453125 -30.875 C 135.453125 -28.039062 135.175781 -26.078125 134.625 -24.984375 C 131.976562 -19.765625 126.144531 -13.492188 117.125 -6.171875 C 108.113281 1.140625 99.925781 4.796875 92.5625 4.796875 C 85.195312 4.796875 79.773438 2.554688 76.296875 -1.921875 C 72.828125 -6.398438 71.09375 -11.363281 71.09375 -16.8125 C 71.09375 -22.257812 72.003906 -27.039062 73.828125 -31.15625 C 66.234375 -21.269531 57.519531 -12.894531 47.6875 -6.03125 C 37.851562 0.820312 29.820312 4.25 23.59375 4.25 C 17.375 4.25 12.300781 2.375 8.375 -1.375 C 3.34375 -6.039062 0.828125 -12.515625 0.828125 -20.796875 C 0.828125 -29.078125 2.675781 -37.398438 6.375 -45.765625 C 10.082031 -54.140625 14.957031 -61.78125 21 -68.6875 C 27.039062 -75.59375 33.671875 -81.882812 40.890625 -87.5625 C 56.078125 -99.457031 70.078125 -105.40625 82.890625 -105.40625 C 87.828125 -105.40625 91.851562 -104.578125 94.96875 -102.921875 C 98.082031 -101.273438 100.050781 -99.21875 100.875 -96.75 C 103.0625 -100.039062 104.910156 -102.117188 106.421875 -102.984375 C 107.929688 -103.859375 110.195312 -104.296875 113.21875 -104.296875 Z M 94.96875 -89.0625 C 79.320312 -89.0625 63.128906 -80.367188 46.390625 -62.984375 C 40.441406 -56.765625 34.972656 -49.304688 29.984375 -40.609375 C 24.992188 -31.921875 22.5 -25.976562 22.5 -22.78125 C 22.5 -19.582031 23.414062 -17.984375 25.25 -17.984375 C 27.8125 -17.984375 34.945312 -23.035156 46.65625 -33.140625 C 58.375 -43.253906 66.148438 -50.6875 69.984375 -55.4375 C 74.191406 -60.75 82.519531 -71.957031 94.96875 -89.0625 Z M 94.96875 -89.0625 "/></g></g></g><g fill="#fefefe" fill-opacity="1"><g transform="translate(378.117206, 497.981171)"><g><path d="M 53.390625 -74.796875 C 74.984375 -99.316406 93.375 -111.578125 108.5625 -111.578125 C 112.3125 -111.578125 115.394531 -110.453125 117.8125 -108.203125 C 120.238281 -105.960938 121.453125 -103.054688 121.453125 -99.484375 C 121.453125 -95.921875 118.910156 -89.953125 113.828125 -81.578125 C 108.753906 -73.210938 104.066406 -66.148438 99.765625 -60.390625 C 97.484375 -57.460938 94.898438 -56 92.015625 -56 C 89.128906 -56 86.882812 -57.050781 85.28125 -59.15625 C 83.6875 -61.257812 82.890625 -63.726562 82.890625 -66.5625 C 82.890625 -72.875 86.273438 -80.007812 93.046875 -87.96875 L 92.765625 -88.25 C 89.753906 -87.96875 82.273438 -82.015625 70.328125 -70.390625 C 58.390625 -58.773438 48.234375 -48.367188 39.859375 -39.171875 C 31.492188 -29.984375 22.414062 -18.800781 12.625 -5.625 C 9.789062 -1.6875 7.390625 0.28125 5.421875 0.28125 C 3.453125 0.28125 0.84375 -0.335938 -2.40625 -1.578125 C -5.65625 -2.816406 -7.617188 -3.707031 -8.296875 -4.25 C -8.984375 -4.800781 -9.328125 -5.71875 -9.328125 -7 C -9.328125 -8.28125 -8.960938 -9.765625 -8.234375 -11.453125 C -7.503906 -13.148438 -6.15625 -15.550781 -4.1875 -18.65625 C -2.21875 -21.769531 0.753906 -26.800781 4.734375 -33.75 C 8.710938 -40.707031 14.910156 -51.226562 23.328125 -65.3125 C 31.742188 -79.40625 36.773438 -87.914062 38.421875 -90.84375 C 41.898438 -96.882812 44.738281 -101.28125 46.9375 -104.03125 C 51.050781 -109.238281 58.003906 -111.84375 67.796875 -111.84375 C 69.992188 -111.84375 71.09375 -110.472656 71.09375 -107.734375 C 71.09375 -103.429688 67.113281 -95.332031 59.15625 -83.4375 Z M 53.390625 -74.796875 "/></g></g></g><g fill="#fefefe" fill-opacity="1"><g transform="translate(476.242782, 497.981171)"><g><path d="M 113.21875 -104.296875 C 120.175781 -104.296875 123.65625 -101.921875 123.65625 -97.171875 C 123.65625 -94.609375 123.054688 -92.726562 121.859375 -91.53125 C 120.671875 -90.34375 118.132812 -86.382812 114.25 -79.65625 C 110.363281 -72.9375 106.0625 -64.335938 101.34375 -53.859375 C 96.632812 -43.390625 93.59375 -34.445312 92.21875 -27.03125 C 91.945312 -26.113281 91.8125 -24.832031 91.8125 -23.1875 C 91.8125 -18.15625 93.179688 -15.640625 95.921875 -15.640625 C 98.671875 -15.640625 101.921875 -16.941406 105.671875 -19.546875 C 109.421875 -22.160156 112.757812 -24.953125 115.6875 -27.921875 C 118.613281 -30.898438 121.472656 -33.941406 124.265625 -37.046875 C 127.054688 -40.160156 128.722656 -41.945312 129.265625 -42.40625 C 129.816406 -42.863281 130.644531 -43.09375 131.75 -43.09375 C 133.488281 -43.09375 134.539062 -41.765625 134.90625 -39.109375 C 135.269531 -36.460938 135.453125 -33.71875 135.453125 -30.875 C 135.453125 -28.039062 135.175781 -26.078125 134.625 -24.984375 C 131.976562 -19.765625 126.144531 -13.492188 117.125 -6.171875 C 108.113281 1.140625 99.925781 4.796875 92.5625 4.796875 C 85.195312 4.796875 79.773438 2.554688 76.296875 -1.921875 C 72.828125 -6.398438 71.09375 -11.363281 71.09375 -16.8125 C 71.09375 -22.257812 72.003906 -27.039062 73.828125 -31.15625 C 66.234375 -21.269531 57.519531 -12.894531 47.6875 -6.03125 C 37.851562 0.820312 29.820312 4.25 23.59375 4.25 C 17.375 4.25 12.300781 2.375 8.375 -1.375 C 3.34375 -6.039062 0.828125 -12.515625 0.828125 -20.796875 C 0.828125 -29.078125 2.675781 -37.398438 6.375 -45.765625 C 10.082031 -54.140625 14.957031 -61.78125 21 -68.6875 C 27.039062 -75.59375 33.671875 -81.882812 40.890625 -87.5625 C 56.078125 -99.457031 70.078125 -105.40625 82.890625 -105.40625 C 87.828125 -105.40625 91.851562 -104.578125 94.96875 -102.921875 C 98.082031 -101.273438 100.050781 -99.21875 100.875 -96.75 C 103.0625 -100.039062 104.910156 -102.117188 106.421875 -102.984375 C 107.929688 -103.859375 110.195312 -104.296875 113.21875 -104.296875 Z M 94.96875 -89.0625 C 79.320312 -89.0625 63.128906 -80.367188 46.390625 -62.984375 C 40.441406 -56.765625 34.972656 -49.304688 29.984375 -40.609375 C 24.992188 -31.921875 22.5 -25.976562 22.5 -22.78125 C 22.5 -19.582031 23.414062 -17.984375 25.25 -17.984375 C 27.8125 -17.984375 34.945312 -23.035156 46.65625 -33.140625 C 58.375 -43.253906 66.148438 -50.6875 69.984375 -55.4375 C 74.191406 -60.75 82.519531 -71.957031 94.96875 -89.0625 Z M 94.96875 -89.0625 "/></g></g></g><g fill="#fefefe" fill-opacity="1"><g transform="translate(590.699784, 497.981171)"><g><path d="M 8.515625 0.828125 L 1.78125 0.546875 L -0.6875 0.546875 C -1.601562 0.273438 -2.585938 -0.269531 -3.640625 -1.09375 C -4.691406 -1.914062 -5.488281 -2.507812 -6.03125 -2.875 C -6.582031 -3.25 -6.859375 -3.914062 -6.859375 -4.875 C -6.859375 -5.832031 -6.492188 -7.5 -5.765625 -9.875 C 12.078125 -49.125 29.320312 -80.507812 45.96875 -104.03125 C 47.800781 -106.59375 50.753906 -108.535156 54.828125 -109.859375 C 58.898438 -111.179688 62.859375 -111.84375 66.703125 -111.84375 C 68.984375 -111.84375 70.125 -110.0625 70.125 -106.5 C 70.125 -105.488281 69.757812 -104.132812 69.03125 -102.4375 C 68.300781 -100.75 66.472656 -97.984375 63.546875 -94.140625 C 60.617188 -90.296875 57.140625 -85.90625 53.109375 -80.96875 C 49.085938 -76.03125 46.800781 -73.195312 46.25 -72.46875 C 58.78125 -85.457031 70.097656 -95.128906 80.203125 -101.484375 C 90.316406 -107.847656 97.640625 -111.03125 102.171875 -111.03125 C 106.703125 -111.03125 110.175781 -109.722656 112.59375 -107.109375 C 115.019531 -104.503906 116.234375 -101.710938 116.234375 -98.734375 C 116.234375 -95.765625 116.023438 -93.296875 115.609375 -91.328125 C 115.203125 -89.359375 114.453125 -87.300781 113.359375 -85.15625 C 112.265625 -83.007812 111.328125 -81.179688 110.546875 -79.671875 C 109.765625 -78.160156 108.457031 -76.191406 106.625 -73.765625 C 104.800781 -71.335938 103.546875 -69.664062 102.859375 -68.75 C 102.171875 -67.84375 100.75 -66.109375 98.59375 -63.546875 C 96.445312 -60.984375 95.285156 -59.5625 95.109375 -59.28125 C 97.671875 -61.84375 101.238281 -65.640625 105.8125 -70.671875 C 110.382812 -75.703125 114.25 -79.910156 117.40625 -83.296875 C 120.5625 -86.679688 124.519531 -90.5 129.28125 -94.75 C 134.039062 -99.007812 138.476562 -102.46875 142.59375 -105.125 C 152.46875 -111.34375 162.484375 -114.453125 172.640625 -114.453125 C 176.117188 -114.453125 179.046875 -113.351562 181.421875 -111.15625 C 183.804688 -108.96875 185 -106.335938 185 -103.265625 C 185 -100.203125 181.289062 -92.882812 173.875 -81.3125 C 166.46875 -69.738281 159.082031 -58.117188 151.71875 -46.453125 C 144.351562 -34.785156 140.671875 -27.441406 140.671875 -24.421875 C 140.671875 -20.210938 141.445312 -17.71875 143 -16.9375 C 144.550781 -16.164062 146.425781 -15.867188 148.625 -16.046875 C 150.820312 -16.234375 153.910156 -17.65625 157.890625 -20.3125 C 161.867188 -22.96875 165.414062 -25.710938 168.53125 -28.546875 C 173.5625 -33.117188 178.226562 -37.554688 182.53125 -41.859375 C 183.4375 -42.679688 184.441406 -43.09375 185.546875 -43.09375 C 187.285156 -43.09375 188.335938 -41.765625 188.703125 -39.109375 C 189.066406 -36.460938 189.25 -33.71875 189.25 -30.875 C 189.25 -28.039062 188.972656 -26.078125 188.421875 -24.984375 C 185.773438 -19.859375 179.921875 -13.585938 170.859375 -6.171875 C 161.804688 1.234375 153.113281 4.9375 144.78125 4.9375 C 143.78125 4.9375 143.050781 4.890625 142.59375 4.796875 C 133.164062 3.890625 126.644531 1.3125 123.03125 -2.9375 C 119.414062 -7.195312 117.609375 -12.253906 117.609375 -18.109375 C 117.609375 -23.972656 119.597656 -31.066406 123.578125 -39.390625 C 127.554688 -47.710938 131.925781 -55.257812 136.6875 -62.03125 C 141.445312 -68.800781 145.816406 -74.90625 149.796875 -80.34375 C 153.773438 -85.789062 155.765625 -88.742188 155.765625 -89.203125 C 155.765625 -89.660156 155.398438 -89.890625 154.671875 -89.890625 C 151.828125 -89.890625 145.515625 -85.316406 135.734375 -76.171875 C 118.984375 -60.523438 104.523438 -45.425781 92.359375 -30.875 C 89.160156 -27.03125 81.566406 -17.285156 69.578125 -1.640625 C 68.203125 0.179688 66.023438 1.09375 63.046875 1.09375 C 60.078125 1.09375 56.992188 0.523438 53.796875 -0.609375 C 50.597656 -1.753906 49 -3.242188 49 -5.078125 C 49 -5.992188 56.269531 -18.828125 70.8125 -43.578125 C 85.363281 -68.328125 92.640625 -81.820312 92.640625 -84.0625 C 92.640625 -86.300781 91.285156 -87.421875 88.578125 -87.421875 C 85.878906 -87.421875 80.320312 -83.394531 71.90625 -75.34375 C 48.757812 -53.195312 30.828125 -31.191406 18.109375 -9.328125 C 17.285156 -8.046875 15.6875 -6.03125 13.3125 -3.28125 C 10.9375 -0.539062 9.335938 0.828125 8.515625 0.828125 Z M 8.515625 0.828125 "/></g></g></g><g fill="#fefefe" fill-opacity="1"><g transform="translate(761.699038, 497.981171)"><g><path d="M 101.6875 -104.578125 C 104.4375 -104.578125 107.25 -103.34375 110.125 -100.875 C 113.007812 -98.40625 114.453125 -94.628906 114.453125 -89.546875 C 114.453125 -84.472656 112.664062 -77.882812 109.09375 -69.78125 C 105.53125 -61.6875 100.640625 -53.453125 94.421875 -45.078125 C 88.203125 -36.710938 81.363281 -28.847656 73.90625 -21.484375 C 66.445312 -14.117188 58.394531 -8.078125 49.75 -3.359375 C 41.101562 1.347656 33.253906 3.703125 26.203125 3.703125 C 19.160156 3.703125 13.507812 1.484375 9.25 -2.953125 C 5 -7.390625 2.875 -13.5625 2.875 -21.46875 C 2.875 -29.382812 4.816406 -38.144531 8.703125 -47.75 C 12.597656 -57.363281 17.609375 -65.851562 23.734375 -73.21875 C 29.867188 -80.582031 36.503906 -87.191406 43.640625 -93.046875 C 58.554688 -105.035156 71.640625 -111.03125 82.890625 -111.03125 C 87.921875 -111.03125 91.71875 -109.789062 94.28125 -107.3125 C 95.195312 -106.488281 95.65625 -105.757812 95.65625 -105.125 L 95.65625 -104.296875 C 96.9375 -104.484375 98.945312 -104.578125 101.6875 -104.578125 Z M 87.828125 -86.328125 L 86.875 -86.328125 C 83.664062 -86.328125 82.0625 -88.660156 82.0625 -93.328125 C 75.382812 -91.128906 68.382812 -87.285156 61.0625 -81.796875 C 53.75 -76.304688 47.210938 -69.8125 41.453125 -62.3125 C 29.734375 -47.300781 23.785156 -34.628906 23.609375 -24.296875 C 23.609375 -19.171875 25.484375 -16.609375 29.234375 -16.609375 C 32.984375 -16.609375 38.5625 -19.078125 45.96875 -24.015625 C 53.382812 -28.953125 60.726562 -35.992188 68 -45.140625 C 75.269531 -54.296875 80.710938 -62.234375 84.328125 -68.953125 C 87.941406 -75.679688 89.75 -80.257812 89.75 -82.6875 C 89.75 -85.113281 89.109375 -86.328125 87.828125 -86.328125 Z M 87.828125 -86.328125 "/></g></g></g><g fill="#fefefe" fill-opacity="1"><g transform="translate(864.627954, 497.981171)"><g><path d="M 124.75 -43.09375 C 126.488281 -43.09375 127.539062 -41.765625 127.90625 -39.109375 C 128.269531 -36.460938 128.453125 -33.71875 128.453125 -30.875 C 128.453125 -28.039062 128.175781 -26.078125 127.625 -24.984375 C 124.976562 -19.859375 119.171875 -13.613281 110.203125 -6.25 C 101.234375 1.113281 92.722656 4.796875 84.671875 4.796875 C 79.734375 4.796875 75.160156 3.3125 70.953125 0.34375 C 66.742188 -2.625 64.640625 -7.8125 64.640625 -15.21875 C 64.640625 -22.632812 66.609375 -29.910156 70.546875 -37.046875 C 47.847656 -8.597656 30.050781 5.625 17.15625 5.625 C 12.03125 5.625 7.890625 3.789062 4.734375 0.125 C 1.578125 -3.53125 0 -7.300781 0 -11.1875 C 0 -15.070312 0.546875 -19.09375 1.640625 -23.25 C 2.742188 -27.414062 3.910156 -31.144531 5.140625 -34.4375 C 6.378906 -37.738281 8.207031 -41.8125 10.625 -46.65625 C 13.050781 -51.507812 14.859375 -55.03125 16.046875 -57.21875 C 17.242188 -59.414062 19.144531 -62.734375 21.75 -67.171875 C 24.351562 -71.609375 27.78125 -77.578125 32.03125 -85.078125 C 36.289062 -92.585938 39.816406 -98.148438 42.609375 -101.765625 C 45.398438 -105.378906 48.117188 -107.207031 50.765625 -107.25 C 53.421875 -107.289062 55.753906 -106.210938 57.765625 -104.015625 C 59.785156 -101.828125 60.796875 -100.046875 60.796875 -98.671875 C 60.796875 -97.296875 57.726562 -91.117188 51.59375 -80.140625 C 33.476562 -47.390625 24.421875 -28.316406 24.421875 -22.921875 C 24.421875 -21.546875 24.925781 -20.859375 25.9375 -20.859375 C 30.332031 -20.859375 41.265625 -30.375 58.734375 -49.40625 C 76.210938 -68.4375 86.320312 -80.625 89.0625 -85.96875 C 91.8125 -91.320312 94.488281 -95.828125 97.09375 -99.484375 C 99.695312 -103.148438 101.640625 -105.394531 102.921875 -106.21875 C 106.859375 -108.78125 111.9375 -110.15625 118.15625 -110.34375 C 119.164062 -110.34375 119.941406 -110.296875 120.484375 -110.203125 C 121.035156 -110.109375 121.675781 -109.328125 122.40625 -107.859375 C 123.144531 -106.398438 123.515625 -105.257812 123.515625 -104.4375 C 122.691406 -101.875 119.050781 -95.054688 112.59375 -83.984375 C 106.144531 -72.921875 102.554688 -66.65625 101.828125 -65.1875 C 91.035156 -42.863281 85.640625 -28.316406 85.640625 -21.546875 C 85.640625 -17.703125 87.101562 -15.78125 90.03125 -15.78125 C 95.332031 -16.507812 101.734375 -20.765625 109.234375 -28.546875 C 111.984375 -31.378906 114.707031 -34.257812 117.40625 -37.1875 C 120.101562 -40.113281 121.769531 -41.828125 122.40625 -42.328125 C 123.050781 -42.835938 123.832031 -43.09375 124.75 -43.09375 Z M 124.75 -43.09375 "/></g></g></g><g fill="#fefefe" fill-opacity="1"><g transform="translate(975.79123, 497.981171)"><g><path d="M 80.140625 -21.140625 C 80.140625 -17.109375 82.882812 -15.09375 88.375 -15.09375 C 91.300781 -15.09375 94.984375 -16.554688 99.421875 -19.484375 C 103.859375 -22.410156 107.863281 -25.613281 111.4375 -29.09375 C 120.945312 -38.519531 126.34375 -43.234375 127.625 -43.234375 C 130.007812 -43.234375 131.203125 -39.800781 131.203125 -32.9375 C 131.203125 -26.070312 129.050781 -21.359375 124.75 -18.796875 C 111.664062 -6.992188 101.554688 0.1875 94.421875 2.75 C 90.390625 4.113281 85.945312 4.75 81.09375 4.65625 C 76.25 4.570312 71.445312 2.472656 66.6875 -1.640625 C 61.9375 -5.765625 59.5625 -10.773438 59.5625 -16.671875 C 59.5625 -22.578125 61.113281 -29.28125 64.21875 -36.78125 C 67.332031 -44.28125 70.515625 -50.707031 73.765625 -56.0625 C 77.015625 -61.414062 81.015625 -67.632812 85.765625 -74.71875 C 90.523438 -81.8125 93.046875 -86.226562 93.328125 -87.96875 L 93.046875 -88.25 C 90.023438 -87.96875 82.546875 -82.015625 70.609375 -70.390625 C 58.671875 -58.773438 48.8125 -48.664062 41.03125 -40.0625 C 33.257812 -31.46875 23.972656 -19.988281 13.171875 -5.625 C 10.148438 -1.6875 7.675781 0.28125 5.75 0.28125 C 3.832031 0.28125 1.253906 -0.335938 -1.984375 -1.578125 C -5.234375 -2.816406 -7.222656 -3.707031 -7.953125 -4.25 C -8.691406 -4.800781 -9.0625 -5.625 -9.0625 -6.71875 C -9.0625 -7.820312 -8.738281 -9.171875 -8.09375 -10.765625 C -7.457031 -12.367188 -6.84375 -13.695312 -6.25 -14.75 C -5.65625 -15.800781 -4.671875 -17.425781 -3.296875 -19.625 C -1.921875 -21.820312 0.800781 -26.460938 4.875 -33.546875 C 8.945312 -40.640625 15.191406 -51.226562 23.609375 -65.3125 C 32.023438 -79.40625 37.054688 -87.914062 38.703125 -90.84375 C 42.179688 -96.882812 45.015625 -101.28125 47.203125 -104.03125 C 51.328125 -109.238281 58.28125 -111.84375 68.0625 -111.84375 C 70.257812 -111.84375 71.359375 -110.472656 71.359375 -107.734375 C 71.359375 -103.429688 67.378906 -95.332031 59.421875 -83.4375 L 53.65625 -74.796875 C 69.488281 -92.359375 82.847656 -103.472656 93.734375 -108.140625 C 99.035156 -110.429688 103.8125 -111.578125 108.0625 -111.578125 C 112.320312 -111.578125 115.707031 -110.429688 118.21875 -108.140625 C 120.738281 -105.859375 122 -103.320312 122 -100.53125 C 122 -97.738281 121.035156 -94.394531 119.109375 -90.5 C 117.191406 -86.613281 115.25 -83.140625 113.28125 -80.078125 C 111.320312 -77.015625 108.738281 -73.148438 105.53125 -68.484375 C 102.332031 -63.816406 100.59375 -61.273438 100.3125 -60.859375 C 100.039062 -60.453125 99.332031 -59.351562 98.1875 -57.5625 C 97.050781 -55.78125 96.207031 -54.476562 95.65625 -53.65625 C 95.101562 -52.832031 94.1875 -51.390625 92.90625 -49.328125 C 91.625 -47.273438 90.59375 -45.5625 89.8125 -44.1875 C 89.039062 -42.8125 88.082031 -41.117188 86.9375 -39.109375 C 85.789062 -37.097656 84.875 -35.359375 84.1875 -33.890625 C 83.507812 -32.429688 82.800781 -30.832031 82.0625 -29.09375 C 80.78125 -25.894531 80.140625 -23.242188 80.140625 -21.140625 Z M 80.140625 -21.140625 "/></g></g></g><g fill="#fefefe" fill-opacity="1"><g transform="translate(1085.582097, 497.981171)"><g><path d="M 102.921875 -176.765625 L 108.5625 -175.390625 C 109.382812 -175.390625 110.113281 -174.976562 110.75 -174.15625 C 111.394531 -173.332031 111.71875 -172.550781 111.71875 -171.8125 C 111.71875 -171.082031 110.753906 -169.113281 108.828125 -165.90625 C 106.910156 -162.707031 104.644531 -159.070312 102.03125 -155 C 99.425781 -150.9375 98.03125 -148.722656 97.84375 -148.359375 C 104.988281 -148.898438 110.046875 -149.171875 113.015625 -149.171875 C 115.984375 -149.171875 118.015625 -148.960938 119.109375 -148.546875 C 120.210938 -148.140625 121.472656 -147 122.890625 -145.125 C 124.304688 -143.25 125.609375 -141.832031 126.796875 -140.875 C 127.992188 -139.914062 128.59375 -138.472656 128.59375 -136.546875 C 128.59375 -134.628906 127.425781 -133.003906 125.09375 -131.671875 C 122.757812 -130.347656 120.265625 -129.550781 117.609375 -129.28125 C 96.390625 -127.175781 84.679688 -126.078125 82.484375 -125.984375 C 75.066406 -114.640625 64.703125 -96.957031 51.390625 -72.9375 C 38.078125 -48.925781 31.007812 -33.898438 30.1875 -27.859375 C 29.820312 -25.109375 29.640625 -22.867188 29.640625 -21.140625 C 29.640625 -17.566406 31.515625 -15.78125 35.265625 -15.78125 C 39.015625 -15.78125 43.175781 -17.21875 47.75 -20.09375 C 52.332031 -22.976562 56.546875 -26.113281 60.390625 -29.5 C 70.628906 -38.65625 76.117188 -43.234375 76.859375 -43.234375 C 79.234375 -43.234375 80.421875 -39.113281 80.421875 -30.875 C 80.421875 -26.394531 78.363281 -22.367188 74.25 -18.796875 C 65.007812 -10.835938 57.234375 -4.84375 50.921875 -0.8125 C 44.609375 3.207031 38.289062 5.21875 31.96875 5.21875 C 30.601562 5.21875 29.328125 5.078125 28.140625 4.796875 C 20.816406 3.429688 15.4375 0.757812 12 -3.21875 C 8.570312 -7.195312 6.878906 -12.570312 6.921875 -19.34375 C 6.972656 -26.113281 8.988281 -34.328125 12.96875 -43.984375 C 16.945312 -53.640625 21.957031 -63.910156 28 -74.796875 C 37.875 -92.546875 47.753906 -109.195312 57.640625 -124.75 L 52.421875 -124.0625 C 41.804688 -122.875 35.628906 -122.28125 33.890625 -122.28125 L 32.65625 -122.28125 C 30.007812 -122.28125 27.445312 -122.804688 24.96875 -123.859375 C 22.5 -124.910156 21.265625 -126.210938 21.265625 -127.765625 C 21.265625 -129.316406 21.925781 -130.828125 23.25 -132.296875 C 24.582031 -133.765625 25.382812 -134.910156 25.65625 -135.734375 C 26.300781 -137.742188 28.703125 -139.984375 32.859375 -142.453125 C 37.023438 -144.921875 40.160156 -146.222656 42.265625 -146.359375 C 44.367188 -146.492188 46.40625 -146.609375 48.375 -146.703125 C 50.34375 -146.796875 52.535156 -146.890625 54.953125 -146.984375 C 57.378906 -147.078125 59.234375 -147.164062 60.515625 -147.25 L 72.875 -147.8125 C 80.5625 -159.332031 85.84375 -166.738281 88.71875 -170.03125 C 91.601562 -173.332031 93.273438 -175.140625 93.734375 -175.453125 C 94.191406 -175.773438 95.109375 -175.9375 96.484375 -175.9375 Z M 102.921875 -176.765625 "/></g></g></g><g fill="#fefefe" fill-opacity="1"><g transform="translate(1145.967074, 497.981171)"><g/></g></g><g fill="#fefefe" fill-opacity="1"><g transform="translate(1204.293438, 497.981171)"><g><path d="M 112.390625 -75.890625 L 79.875 -77.265625 C 76.03125 -67.929688 73.101562 -57.910156 71.09375 -47.203125 C 71 -46.753906 70.859375 -46.113281 70.671875 -45.28125 C 70.492188 -44.457031 70.359375 -43.796875 70.265625 -43.296875 C 70.171875 -42.796875 70.03125 -42.175781 69.84375 -41.4375 C 69.664062 -40.707031 69.484375 -40.132812 69.296875 -39.71875 C 69.117188 -39.3125 68.894531 -38.878906 68.625 -38.421875 C 68.070312 -37.691406 67.40625 -37.328125 66.625 -37.328125 C 65.851562 -37.328125 65.191406 -37.460938 64.640625 -37.734375 C 64.085938 -38.015625 63.535156 -38.425781 62.984375 -38.96875 C 62.441406 -39.519531 61.960938 -40.046875 61.546875 -40.546875 C 61.140625 -41.054688 60.613281 -41.722656 59.96875 -42.546875 L 58.46875 -44.46875 C 58.1875 -44.832031 57.679688 -45.445312 56.953125 -46.3125 C 56.222656 -47.1875 55.71875 -47.78125 55.4375 -48.09375 C 55.164062 -48.414062 54.800781 -48.875 54.34375 -49.46875 C 53.882812 -50.0625 53.585938 -50.585938 53.453125 -51.046875 C 53.316406 -51.503906 53.25 -51.914062 53.25 -52.28125 C 53.25 -52.65625 53.40625 -53.207031 53.71875 -53.9375 C 54.039062 -54.664062 55.070312 -56.953125 56.8125 -60.796875 C 59.5625 -67.203125 61.710938 -72.785156 63.265625 -77.546875 C 49.359375 -77.171875 40.804688 -76.984375 37.609375 -76.984375 C 31.835938 -76.984375 28.953125 -78.769531 28.953125 -82.34375 C 28.953125 -82.707031 29.113281 -83.320312 29.4375 -84.1875 C 29.757812 -85.0625 30.304688 -86.570312 31.078125 -88.71875 C 31.859375 -90.875 32.410156 -92.335938 32.734375 -93.109375 C 33.054688 -93.890625 33.582031 -94.828125 34.3125 -95.921875 C 35.5 -97.753906 37.460938 -98.671875 40.203125 -98.671875 C 47.523438 -98.671875 57.363281 -98.394531 69.71875 -97.84375 C 70.082031 -98.582031 72.273438 -102.425781 76.296875 -109.375 C 80.328125 -116.332031 83.070312 -121.226562 84.53125 -124.0625 C 86 -126.894531 86.867188 -128.722656 87.140625 -129.546875 C 87.421875 -130.367188 87.71875 -131.078125 88.03125 -131.671875 C 88.351562 -132.273438 88.835938 -132.941406 89.484375 -133.671875 C 90.671875 -135.222656 92.289062 -136 94.34375 -136 C 96.40625 -136 98.578125 -135.0625 100.859375 -133.1875 C 103.148438 -131.3125 104.296875 -129.34375 104.296875 -127.28125 C 104.296875 -125.226562 103.703125 -122.96875 102.515625 -120.5 C 101.328125 -118.03125 99.175781 -114.300781 96.0625 -109.3125 C 92.957031 -104.320312 90.535156 -100.226562 88.796875 -97.03125 C 103.796875 -96.382812 113.265625 -96.0625 117.203125 -96.0625 C 123.785156 -96.0625 127.078125 -94.320312 127.078125 -90.84375 C 127.078125 -89.570312 126.800781 -88.476562 126.25 -87.5625 C 125.707031 -86.644531 125.09375 -85.566406 124.40625 -84.328125 C 123.71875 -83.097656 123.210938 -82.1875 122.890625 -81.59375 C 122.578125 -81 122.050781 -80.265625 121.3125 -79.390625 C 120.582031 -78.523438 119.851562 -77.863281 119.125 -77.40625 C 117.289062 -76.394531 115.046875 -75.890625 112.390625 -75.890625 Z M 112.390625 -75.890625 "/></g></g></g><g fill="#fefefe" fill-opacity="1"><g transform="translate(1320.960855, 497.981171)"><g/></g></g></svg>